/* XPM */
static char *_963db9d7c524551feb06ac5e19c1bf5YUKnKC6F27bozewy[] = {
/* columns rows colors chars-per-pixel */
"64 64 2 1 ",
"  c #645A3A",
". c #796B44",
/* pixels */
"            ....................................................",
"            ....................................................",
"            ....................................................",
"            ....................................................",
"        ....................................................    ",
"        ....................................................    ",
"        ....................................................    ",
"        ....................................................    ",
"    ........................................................    ",
"    ........................................................    ",
"    ........................................................    ",
"    ........................................................    ",
"    ........................................................    ",
"    ........................................................    ",
"    ........................................................    ",
"    ........................................................    ",
"................................................................",
"................................................................",
"................................................................",
"................................................................",
"................................................................",
"................................................................",
"................................................................",
"................................................................",
"........................................................        ",
"........................................................        ",
"........................................................        ",
"........................................................        ",
"        ............................................            ",
"        ............................................            ",
"        ............................................            ",
"        ............................................            ",
"............................................................    ",
"............................................................    ",
"............................................................    ",
"............................................................    ",
"........................................................        ",
"........................................................        ",
"........................................................        ",
"........................................................        ",
"................................................................",
"................................................................",
"................................................................",
"................................................................",
"................................................................",
"................................................................",
"................................................................",
"................................................................",
"................................................................",
"................................................................",
"................................................................",
"................................................................",
"    ........................................................    ",
"    ........................................................    ",
"    ........................................................    ",
"    ........................................................    ",
"        ................................................        ",
"        ................................................        ",
"        ................................................        ",
"        ................................................        ",
"    ............................................................",
"    ............................................................",
"    ............................................................",
"    ............................................................"
};
