/* XPM */
static char *_517ba88ce57450ad7ce90f064533cb4zw3p6M5nyWBIRDpC[] = {
/* columns rows colors chars-per-pixel */
"64 64 2 1 ",
"  c #4E6338",
". c #586738",
/* pixels */
"................................................................",
"................................................................",
"................................................................",
"................................................................",
"................................................................",
"................................................................",
"................................................................",
"................................................................",
"....................                        ....................",
"....................                        ....................",
"....................                        ....................",
"....................                        ....................",
"................                                ................",
"................                                ................",
"................                                ................",
"................                                ................",
"............                                        ............",
"............                                        ............",
"............                                        ............",
"............                                        ............",
"........                                                ........",
"........                                                ........",
"........                                                ........",
"........                                                ........",
"........                                                ........",
"........                                                ........",
"........                                                ........",
"........                                                ........",
"........                                                ........",
"........                                                ........",
"........                                                ........",
"........                                                ........",
"........                                                ........",
"........                                                ........",
"........                                                ........",
"........                                                ........",
"........                                                ........",
"........                                                ........",
"........                                                ........",
"........                                                ........",
"........                                                ........",
"........                                                ........",
"........                                                ........",
"........                                                ........",
"............                                        ............",
"............                                        ............",
"............                                        ............",
"............                                        ............",
"................                                ................",
"................                                ................",
"................                                ................",
"................                                ................",
"....................                        ....................",
"....................                        ....................",
"....................                        ....................",
"....................                        ....................",
"................................................................",
"................................................................",
"................................................................",
"................................................................",
"................................................................",
"................................................................",
"................................................................",
"................................................................"
};
