/* XPM */
static char *cda72e6472f6472add9f984fdeddb5edAH6Twhd4fGUE60ad[] = {
/* columns rows colors chars-per-pixel */
"64 64 18 1 ",
"  c None",
". c #040404",
"X c #3F3013",
"o c #002E27",
"O c #433416",
"+ c #586738",
"@ c #004F43",
"# c #007966",
"$ c #6E6C68",
"% c #866114",
"& c #84482A",
"* c #AA5A33",
"= c #D97F40",
"- c #F6A954",
"; c #00B49D",
": c #BFB7A6",
"> c #F7D099",
", c gray91",
/* pixels */
"++++++++++++++++++++++++++++....................++++++++++++++++",
"++++++++++++++++++++++++++++....................++++++++++++++++",
"++++++++++++++++++++++++++++....................++++++++++++++++",
"++++++++++++++++++++++++++++....................++++++++++++++++",
"++++++++++++++++++++++++....####;;;;;;;;####....++++++++++++++++",
"++++++++++++++++++++++++....####;;;;;;;;####....++++++++++++++++",
"++++++++++++++++++++++++....####;;;;;;;;####....++++++++++++++++",
"++++++++++++++++++++++++....####;;;;;;;;####....++++++++++++++++",
"++++++++++++++++++++....####;;;;;;;;####....++++++++++++++++++++",
"++++++++++++++++++++....####;;;;;;;;####....++++++++++++++++++++",
"++++++++++++++++++++....####;;;;;;;;####....++++++++++++++++++++",
"++++++++++++++++++++....####;;;;;;;;####....++++++++++++++++++++",
"++++++++++++........OOOO############@@@@OOOO........++++++++++++",
"++++++++++++........OOOO############@@@@OOOO........++++++++++++",
"++++++++++++........OOOO############@@@@OOOO........++++++++++++",
"++++++++++++........OOOO############@@@@OOOO........++++++++++++",
"++++++++....oooo$$$$::::$$$$####@@@@@@@@%%%%oooooooo....++++++++",
"++++++++....oooo$$$$::::$$$$####@@@@@@@@%%%%oooooooo....++++++++",
"++++++++....oooo$$$$::::$$$$####@@@@@@@@%%%%oooooooo....++++++++",
"++++++++....oooo$$$$::::$$$$####@@@@@@@@%%%%oooooooo....++++++++",
"++++....ooooooooOOOOOOOO::::%%%%%%%%%%%%OOOO@@@@oooooooo....++++",
"++++....ooooooooOOOOOOOO::::%%%%%%%%%%%%OOOO@@@@oooooooo....++++",
"++++....ooooooooOOOOOOOO::::%%%%%%%%%%%%OOOO@@@@oooooooo....++++",
"++++....ooooooooOOOOOOOO::::%%%%%%%%%%%%OOOO@@@@oooooooo....++++",
"++++....@@@@@@@@$$$$::::$$$$OOOOOOOOOOOO@@@@@@@@@@@@@@@@....++++",
"++++....@@@@@@@@$$$$::::$$$$OOOOOOOOOOOO@@@@@@@@@@@@@@@@....++++",
"++++....@@@@@@@@$$$$::::$$$$OOOOOOOOOOOO@@@@@@@@@@@@@@@@....++++",
"++++....@@@@@@@@$$$$::::$$$$OOOOOOOOOOOO@@@@@@@@@@@@@@@@....++++",
"++++....@@@@########################################@@@@....++++",
"++++....@@@@########################################@@@@....++++",
"++++....@@@@########################################@@@@....++++",
"++++....@@@@########################################@@@@....++++",
"++++....oooo@@@@####;;;;;;;;;;;;;;;;;;;;;;;;####@@@@oooo....++++",
"++++....oooo@@@@####;;;;;;;;;;;;;;;;;;;;;;;;####@@@@oooo....++++",
"++++....oooo@@@@####;;;;;;;;;;;;;;;;;;;;;;;;####@@@@oooo....++++",
"++++....oooo@@@@####;;;;;;;;;;;;;;;;;;;;;;;;####@@@@oooo....++++",
"++++++++....oooooooo@@@@@@@@@@@@@@@@@@@@@@@@oooooooo....++++++++",
"++++++++....oooooooo@@@@@@@@@@@@@@@@@@@@@@@@oooooooo....++++++++",
"++++++++....oooooooo@@@@@@@@@@@@@@@@@@@@@@@@oooooooo....++++++++",
"++++++++....oooooooo@@@@@@@@@@@@@@@@@@@@@@@@oooooooo....++++++++",
"++++++++++++....>>>>....,,,,--------========........++++++++++++",
"++++++++++++....>>>>....,,,,--------========........++++++++++++",
"++++++++++++....>>>>....,,,,--------========........++++++++++++",
"++++++++++++....>>>>....,,,,--------========........++++++++++++",
"++++++++++++....&&&&--------========********....++++++++++++++++",
"++++++++++++....&&&&--------========********....++++++++++++++++",
"++++++++++++....&&&&--------========********....++++++++++++++++",
"++++++++++++....&&&&--------========********....++++++++++++++++",
"++++++++++++++++....oooooooo########@@@@....++++++++++++++++++++",
"++++++++++++++++....oooooooo########@@@@....++++++++++++++++++++",
"++++++++++++++++....oooooooo########@@@@....++++++++++++++++++++",
"++++++++++++++++....oooooooo########@@@@....++++++++++++++++++++",
"++++++++++++++++....@@@@@@@@########@@@@....++++++++++++++++++++",
"++++++++++++++++....@@@@@@@@########@@@@....++++++++++++++++++++",
"++++++++++++++++....@@@@@@@@########@@@@....++++++++++++++++++++",
"++++++++++++++++....@@@@....--------........++++++++++++++++++++",
"++++++++++++++++....@@@@....--------........++++++++++++++++++++",
"++++++++++++++++....@@@@....--------........++++++++++++++++++++",
"++++++++++++++++....oooo....====----........++++++++++++++++++++",
"++++++++++++++++....oooo....====----........++++++++++++++++++++",
"++++++++++++++++....oooo....====----........++++++++++++++++++++",
"++++++++++++++++++++....XXXX............++++++++++++++++++++++++",
"++++++++++++++++++++....XXXX............++++++++++++++++++++++++",
"++++++++++++++++++++....XXXX............++++++++++++++++++++++++"
};
