/* XPM */
static char *_bd0f0439de44e8ab66e3bd0b3ccc7963AN2KFoiNVnFcyDX[] = {
/* columns rows colors chars-per-pixel */
"64 64 13 1 ",
"  c None",
". c #040404",
"X c #3F3013",
"o c #002E27",
"O c #433416",
"+ c #586738",
"@ c #004F43",
"# c #007966",
"$ c #866114",
"% c #AA5A33",
"& c #D97F40",
"* c #F6A954",
"= c #00B49D",
/* pixels */
"++++++++++++++++++++++++++++........++++++++++++++++++++++++++++",
"++++++++++++++++++++++++++++........++++++++++++++++++++++++++++",
"++++++++++++++++++++++++++++........++++++++++++++++++++++++++++",
"++++++++++++++++++++++++++++........++++++++++++++++++++++++++++",
"++++++++++++++++++++++++....########....++++++++++++++++++++++++",
"++++++++++++++++++++++++....########....++++++++++++++++++++++++",
"++++++++++++++++++++++++....########....++++++++++++++++++++++++",
"++++++++++++++++++++++++....########....++++++++++++++++++++++++",
"++++++++++++++++++++....####========####....++++++++++++++++++++",
"++++++++++++++++++++....####========####....++++++++++++++++++++",
"++++++++++++++++++++....####========####....++++++++++++++++++++",
"++++++++++++++++++++....####========####....++++++++++++++++++++",
"++++++++++++........OOOO####========####OOOO........++++++++++++",
"++++++++++++........OOOO####========####OOOO........++++++++++++",
"++++++++++++........OOOO####========####OOOO........++++++++++++",
"++++++++++++........OOOO####========####OOOO........++++++++++++",
"++++++++....oooooooo$$$$@@@@########@@@@$$$$oooooooo....++++++++",
"++++++++....oooooooo$$$$@@@@########@@@@$$$$oooooooo....++++++++",
"++++++++....oooooooo$$$$@@@@########@@@@$$$$oooooooo....++++++++",
"++++++++....oooooooo$$$$@@@@########@@@@$$$$oooooooo....++++++++",
"++++....oooooooo@@@@OOOO$$$$$$$$$$$$$$$$OOOO@@@@oooooooo....++++",
"++++....oooooooo@@@@OOOO$$$$$$$$$$$$$$$$OOOO@@@@oooooooo....++++",
"++++....oooooooo@@@@OOOO$$$$$$$$$$$$$$$$OOOO@@@@oooooooo....++++",
"++++....oooooooo@@@@OOOO$$$$$$$$$$$$$$$$OOOO@@@@oooooooo....++++",
"++++....@@@@@@@@@@@@@@@@OOOOOOOOOOOOOOOO@@@@@@@@@@@@@@@@....++++",
"++++....@@@@@@@@@@@@@@@@OOOOOOOOOOOOOOOO@@@@@@@@@@@@@@@@....++++",
"++++....@@@@@@@@@@@@@@@@OOOOOOOOOOOOOOOO@@@@@@@@@@@@@@@@....++++",
"++++....@@@@@@@@@@@@@@@@OOOOOOOOOOOOOOOO@@@@@@@@@@@@@@@@....++++",
"++++....@@@@########################################@@@@....++++",
"++++....@@@@########################################@@@@....++++",
"++++....@@@@########################################@@@@....++++",
"++++....@@@@########################################@@@@....++++",
"++++....oooo@@@@####========================####@@@@oooo....++++",
"++++....oooo@@@@####========================####@@@@oooo....++++",
"++++....oooo@@@@####========================####@@@@oooo....++++",
"++++....oooo@@@@####========================####@@@@oooo....++++",
"++++++++....oooooooo@@@@@@@@@@@@@@@@@@@@@@@@oooooooo....++++++++",
"++++++++....oooooooo@@@@@@@@@@@@@@@@@@@@@@@@oooooooo....++++++++",
"++++++++....oooooooo@@@@@@@@@@@@@@@@@@@@@@@@oooooooo....++++++++",
"++++++++....oooooooo@@@@@@@@@@@@@@@@@@@@@@@@oooooooo....++++++++",
"++++++++++++........oooooooooooooooooooooooo........++++++++++++",
"++++++++++++........oooooooooooooooooooooooo........++++++++++++",
"++++++++++++........oooooooooooooooooooooooo........++++++++++++",
"++++++++++++........oooooooooooooooooooooooo........++++++++++++",
"++++++++++++....####%%%%&&&&&&&&&&&&&&&&%%%%####....++++++++++++",
"++++++++++++....####%%%%&&&&&&&&&&&&&&&&%%%%####....++++++++++++",
"++++++++++++....####%%%%&&&&&&&&&&&&&&&&%%%%####....++++++++++++",
"++++++++++++....####%%%%&&&&&&&&&&&&&&&&%%%%####....++++++++++++",
"++++++++....########################################....++++++++",
"++++++++....########################################....++++++++",
"++++++++....########################################....++++++++",
"++++++++....########################################....++++++++",
"++++....********....@@@@################@@@@....********....++++",
"++++....********....@@@@################@@@@....********....++++",
"++++....********....@@@@################@@@@....********....++++",
"++++....****&&&&....@@@@@@@@@@@@@@@@@@@@@@@@....&&&&****....++++",
"++++....****&&&&....@@@@@@@@@@@@@@@@@@@@@@@@....&&&&****....++++",
"++++....****&&&&....@@@@@@@@@@@@@@@@@@@@@@@@....&&&&****....++++",
"++++++++............oooo@@@@@@@@@@@@@@@@oooo............++++++++",
"++++++++............oooo@@@@@@@@@@@@@@@@oooo............++++++++",
"++++++++............oooo@@@@@@@@@@@@@@@@oooo............++++++++",
"++++++++++++++++....XXXXXXXX........XXXXXXXX....++++++++++++++++",
"++++++++++++++++....XXXXXXXX........XXXXXXXX....++++++++++++++++",
"++++++++++++++++....XXXXXXXX........XXXXXXXX....++++++++++++++++"
};
