/* XPM */
static char *_5ca96ffa4d043a0a520009dba5857c58OAOOnhLiXXEKPeh[] = {
/* columns rows colors chars-per-pixel */
"64 64 18 1 ",
"  c #040404",
". c #3F3013",
"X c #002E27",
"o c #433416",
"O c #586738",
"+ c #004F43",
"@ c #007966",
"# c #6E6C68",
"$ c #866114",
"% c #84482A",
"& c #AA5A33",
"* c #D97F40",
"= c #F6A954",
"- c #00B49D",
"; c #BFB7A6",
": c #F7D099",
"> c #C8C1B3",
", c gray91",
/* pixels */
"OOOOOOOOOOOOOOOOOOOOOOOOOOOO        OOOOOOOOOOOOOOOOOOOOOOOOOOOO",
"OOOOOOOOOOOOOOOOOOOOOOOOOOOO        OOOOOOOOOOOOOOOOOOOOOOOOOOOO",
"OOOOOOOOOOOOOOOOOOOOOOOOOOOO        OOOOOOOOOOOOOOOOOOOOOOOOOOOO",
"OOOOOOOOOOOOOOOOOOOOOOOOOOOO        OOOOOOOOOOOOOOOOOOOOOOOOOOOO",
"OOOOOOOOOOOOOOOOOOOOOOOO    @@@@@@@@    OOOOOOOOOOOOOOOOOOOOOOOO",
"OOOOOOOOOOOOOOOOOOOOOOOO    @@@@@@@@    OOOOOOOOOOOOOOOOOOOOOOOO",
"OOOOOOOOOOOOOOOOOOOOOOOO    @@@@@@@@    OOOOOOOOOOOOOOOOOOOOOOOO",
"OOOOOOOOOOOOOOOOOOOOOOOO    @@@@@@@@    OOOOOOOOOOOOOOOOOOOOOOOO",
"OOOOOOOOOOOOOOOOOOOO    @@@@--------@@@@    OOOOOOOOOOOOOOOOOOOO",
"OOOOOOOOOOOOOOOOOOOO    @@@@--------@@@@    OOOOOOOOOOOOOOOOOOOO",
"OOOOOOOOOOOOOOOOOOOO    @@@@--------@@@@    OOOOOOOOOOOOOOOOOOOO",
"OOOOOOOOOOOOOOOOOOOO    @@@@--------@@@@    OOOOOOOOOOOOOOOOOOOO",
"OOOOOOOOOOOO        oooo@@@@--------@@@@oooo        OOOOOOOOOOOO",
"OOOOOOOOOOOO        oooo@@@@--------@@@@oooo        OOOOOOOOOOOO",
"OOOOOOOOOOOO        oooo@@@@--------@@@@oooo        OOOOOOOOOOOO",
"OOOOOOOOOOOO        oooo@@@@--------@@@@oooo        OOOOOOOOOOOO",
"OOOOOOOO    XXXXXXXX$$$$++++@@@@@@@@++++$$$$XXXXXXXX    OOOOOOOO",
"OOOOOOOO    XXXXXXXX$$$$++++@@@@@@@@++++$$$$XXXXXXXX    OOOOOOOO",
"OOOOOOOO    XXXXXXXX$$$$++++@@@@@@@@++++$$$$XXXXXXXX    OOOOOOOO",
"OOOOOOOO    XXXXXXXX$$$$++++@@@@@@@@++++$$$$XXXXXXXX    OOOOOOOO",
"OOOO    XXXXXXXX++++oooo####>>>>>>>>####oooo++++XXXXXXXX    OOOO",
"OOOO    XXXXXXXX++++oooo####>>>>>>>>####oooo++++XXXXXXXX    OOOO",
"OOOO    XXXXXXXX++++oooo####>>>>>>>>####oooo++++XXXXXXXX    OOOO",
"OOOO    XXXXXXXX++++oooo####>>>>>>>>####oooo++++XXXXXXXX    OOOO",
"OOOO    ++++++++++++++++;;;;oooooooo;;;;++++++++++++++++    OOOO",
"OOOO    ++++++++++++++++;;;;oooooooo;;;;++++++++++++++++    OOOO",
"OOOO    ++++++++++++++++;;;;oooooooo;;;;++++++++++++++++    OOOO",
"OOOO    ++++++++++++++++;;;;oooooooo;;;;++++++++++++++++    OOOO",
"OOOO    ++++@@@@@@@@@@@@####;;;;;;;;####@@@@@@@@@@@@++++    OOOO",
"OOOO    ++++@@@@@@@@@@@@####;;;;;;;;####@@@@@@@@@@@@++++    OOOO",
"OOOO    ++++@@@@@@@@@@@@####;;;;;;;;####@@@@@@@@@@@@++++    OOOO",
"OOOO    ++++@@@@@@@@@@@@####;;;;;;;;####@@@@@@@@@@@@++++    OOOO",
"OOOO    XXXX++++@@@@------------------------@@@@++++XXXX    OOOO",
"OOOO    XXXX++++@@@@------------------------@@@@++++XXXX    OOOO",
"OOOO    XXXX++++@@@@------------------------@@@@++++XXXX    OOOO",
"OOOO    XXXX++++@@@@------------------------@@@@++++XXXX    OOOO",
"OOOOOOOO    XXXXXXXX++++++++++++++++++++++++XXXXXXXX    OOOOOOOO",
"OOOOOOOO    XXXXXXXX++++++++++++++++++++++++XXXXXXXX    OOOOOOOO",
"OOOOOOOO    XXXXXXXX++++++++++++++++++++++++XXXXXXXX    OOOOOOOO",
"OOOOOOOO    XXXXXXXX++++++++++++++++++++++++XXXXXXXX    OOOOOOOO",
"OOOOOOOOOOOO        ,,,,    ::::::::    ,,,,        OOOOOOOOOOOO",
"OOOOOOOOOOOO        ,,,,    ::::::::    ,,,,        OOOOOOOOOOOO",
"OOOOOOOOOOOO        ,,,,    ::::::::    ,,,,        OOOOOOOOOOOO",
"OOOOOOOOOOOO        ,,,,    ::::::::    ,,,,        OOOOOOOOOOOO",
"OOOOOOOOOOOO    @@@@&&&&================&&&&@@@@    OOOOOOOOOOOO",
"OOOOOOOOOOOO    @@@@&&&&================&&&&@@@@    OOOOOOOOOOOO",
"OOOOOOOOOOOO    @@@@&&&&================&&&&@@@@    OOOOOOOOOOOO",
"OOOOOOOOOOOO    @@@@&&&&================&&&&@@@@    OOOOOOOOOOOO",
"OOOOOOOO    @@@@@@@@@@@@%%%%%%%%%%%%%%%%@@@@@@@@@@@@    OOOOOOOO",
"OOOOOOOO    @@@@@@@@@@@@%%%%%%%%%%%%%%%%@@@@@@@@@@@@    OOOOOOOO",
"OOOOOOOO    @@@@@@@@@@@@%%%%%%%%%%%%%%%%@@@@@@@@@@@@    OOOOOOOO",
"OOOOOOOO    @@@@@@@@@@@@%%%%%%%%%%%%%%%%@@@@@@@@@@@@    OOOOOOOO",
"OOOO    ========    ++++@@@@@@@@@@@@@@@@++++    ========    OOOO",
"OOOO    ========    ++++@@@@@@@@@@@@@@@@++++    ========    OOOO",
"OOOO    ========    ++++@@@@@@@@@@@@@@@@++++    ========    OOOO",
"OOOO    ====****    ++++++++++++++++++++++++    ****====    OOOO",
"OOOO    ====****    ++++++++++++++++++++++++    ****====    OOOO",
"OOOO    ====****    ++++++++++++++++++++++++    ****====    OOOO",
"OOOOOOOO            XXXX++++++++++++++++XXXX            OOOOOOOO",
"OOOOOOOO            XXXX++++++++++++++++XXXX            OOOOOOOO",
"OOOOOOOO            XXXX++++++++++++++++XXXX            OOOOOOOO",
"OOOOOOOOOOOOOOOO    ........        ........    OOOOOOOOOOOOOOOO",
"OOOOOOOOOOOOOOOO    ........        ........    OOOOOOOOOOOOOOOO",
"OOOOOOOOOOOOOOOO    ........        ........    OOOOOOOOOOOOOOOO"
};
