/* XPM */
static char *Rock11675776529[] = {
/* columns rows colors chars-per-pixel */
"32 32 5 1 ",
"  c #1C1A30",
". c #4E6338",
"X c #2A304E",
"o c #94A0BA",
"O c #DDE2E9",
/* pixels */
"........                ........",
"........                ........",
"........                ........",
"........                ........",
"....    OOOOOOOOOOOOOOOO    ....",
"....    OOOOOOOOOOOOOOOO    ....",
"....    OOOOOOOOOOOOOOOO    ....",
"....    OOOOOOOOOOOOOOOO    ....",
"    OOOOOOOOooooOOOOoooooooo    ",
"    OOOOOOOOooooOOOOoooooooo    ",
"    OOOOOOOOooooOOOOoooooooo    ",
"    OOOOOOOOooooOOOOoooooooo    ",
"    OOOOOOOOooooooooooooXXXX    ",
"    OOOOOOOOooooooooooooXXXX    ",
"    OOOOOOOOooooooooooooXXXX    ",
"    OOOOOOOOooooooooooooXXXX    ",
"    OOOOooooOOOOooooooooXXXX    ",
"    OOOOooooOOOOooooooooXXXX    ",
"    OOOOooooOOOOooooooooXXXX    ",
"    OOOOooooOOOOooooooooXXXX    ",
"    ooooooooooooooooXXXXXXXX    ",
"    ooooooooooooooooXXXXXXXX    ",
"    ooooooooooooooooXXXXXXXX    ",
"    ooooooooooooooooXXXXXXXX    ",
"....    XXXXXXXXXXXXXXXX    ....",
"....    XXXXXXXXXXXXXXXX    ....",
"....    XXXXXXXXXXXXXXXX    ....",
"....    XXXXXXXXXXXXXXXX    ....",
"........                ........",
"........                ........",
"........                ........",
"........                ........"
};
