/* XPM */
static char *slime51675774664[] = {
/* columns rows colors chars-per-pixel */
"64 64 10 1 ",
"  c black",
". c #002F15",
"X c #005928",
"o c #087129",
"O c #586738",
"+ c #40AD29",
"@ c #6BD926",
"# c #A9E74E",
"$ c #C0E869",
"% c #E0E8B1",
/* pixels */
"OOOOOOOOOOOOOOOOOOOOOOOOOOOOOOOOOOOOOOOOOOOOOOOOOOOOOOOOOOOOOOOO",
"OOOOOOOOOOOOOOOOOOOOOOOOOOOOOOOOOOOOOOOOOOOOOOOOOOOOOOOOOOOOOOOO",
"OOOOOOOOOOOOOOOOOOOOOOOOOOOOOOOOOOOOOOOOOOOOOOOOOOOOOOOOOOOOOOOO",
"OOOOOOOOOOOOOOOOOOOOOOOOOOOOOOOOOOOOOOOOOOOOOOOOOOOOOOOOOOOOOOOO",
"OOOOOOOOOOOOOOOOOOOO                        OOOOOOOOOOOOOOOOOOOO",
"OOOOOOOOOOOOOOOOOOOO                        OOOOOOOOOOOOOOOOOOOO",
"OOOOOOOOOOOOOOOOOOOO                        OOOOOOOOOOOOOOOOOOOO",
"OOOOOOOOOOOOOOOOOOOO                        OOOOOOOOOOOOOOOOOOOO",
"OOOOOOOOOOOOOOOO    oooo%%%%%%%%$$$$++++oooo    OOOOOOOOOOOOOOOO",
"OOOOOOOOOOOOOOOO    oooo%%%%%%%%$$$$++++oooo    OOOOOOOOOOOOOOOO",
"OOOOOOOOOOOOOOOO    oooo%%%%%%%%$$$$++++oooo    OOOOOOOOOOOOOOOO",
"OOOOOOOOOOOOOOOO    oooo%%%%%%%%$$$$++++oooo    OOOOOOOOOOOOOOOO",
"OOOOOOOOOOOO    XXXX$$$$%%%%%%%%$$$$$$$$++++XXXX    OOOOOOOOOOOO",
"OOOOOOOOOOOO    XXXX$$$$%%%%%%%%$$$$$$$$++++XXXX    OOOOOOOOOOOO",
"OOOOOOOOOOOO    XXXX$$$$%%%%%%%%$$$$$$$$++++XXXX    OOOOOOOOOOOO",
"OOOOOOOOOOOO    XXXX$$$$%%%%%%%%$$$$$$$$++++XXXX    OOOOOOOOOOOO",
"OOOOOOOO    ....++++$$$$$$$$oooooooooooo++++++++....    OOOOOOOO",
"OOOOOOOO    ....++++$$$$$$$$oooooooooooo++++++++....    OOOOOOOO",
"OOOOOOOO    ....++++$$$$$$$$oooooooooooo++++++++....    OOOOOOOO",
"OOOOOOOO    ....++++$$$$$$$$oooooooooooo++++++++....    OOOOOOOO",
"OOOOOOOO    XXXX++++XXXX................XXXX++++XXXX    OOOOOOOO",
"OOOOOOOO    XXXX++++XXXX................XXXX++++XXXX    OOOOOOOO",
"OOOOOOOO    XXXX++++XXXX................XXXX++++XXXX    OOOOOOOO",
"OOOOOOOO    XXXX++++XXXX................XXXX++++XXXX    OOOOOOOO",
"OOOOOOOO    XXXX++++........................++++XXXX    OOOOOOOO",
"OOOOOOOO    XXXX++++........................++++XXXX    OOOOOOOO",
"OOOOOOOO    XXXX++++........................++++XXXX    OOOOOOOO",
"OOOOOOOO    XXXX++++........................++++XXXX    OOOOOOOO",
"OOOOOOOO    XXXX++++........................++++XXXX    OOOOOOOO",
"OOOOOOOO    XXXX++++........................++++XXXX    OOOOOOOO",
"OOOOOOOO    XXXX++++........................++++XXXX    OOOOOOOO",
"OOOOOOOO    XXXX++++........................++++XXXX    OOOOOOOO",
"OOOOOOOO    ....@@@@++++XXXX........XXXX++++@@@@....    OOOOOOOO",
"OOOOOOOO    ....@@@@++++XXXX........XXXX++++@@@@....    OOOOOOOO",
"OOOOOOOO    ....@@@@++++XXXX........XXXX++++@@@@....    OOOOOOOO",
"OOOOOOOO    ....@@@@++++XXXX........XXXX++++@@@@....    OOOOOOOO",
"OOOOOOOOOOOO    XXXX####++++XXXXXXXX++++####XXXX    OOOOOOOOOOOO",
"OOOOOOOOOOOO    XXXX####++++XXXXXXXX++++####XXXX    OOOOOOOOOOOO",
"OOOOOOOOOOOO    XXXX####++++XXXXXXXX++++####XXXX    OOOOOOOOOOOO",
"OOOOOOOOOOOO    XXXX####++++XXXXXXXX++++####XXXX    OOOOOOOOOOOO",
"OOOOOOOOOOOOOOOO    XXXX################XXXX    OOOOOOOOOOOOOOOO",
"OOOOOOOOOOOOOOOO    XXXX################XXXX    OOOOOOOOOOOOOOOO",
"OOOOOOOOOOOOOOOO    XXXX################XXXX    OOOOOOOOOOOOOOOO",
"OOOOOOOOOOOOOOOO    XXXX################XXXX    OOOOOOOOOOOOOOOO",
"OOOOOOOOOOOOOOOOOOOO                        OOOOOOOOOOOOOOOOOOOO",
"OOOOOOOOOOOOOOOOOOOO                        OOOOOOOOOOOOOOOOOOOO",
"OOOOOOOOOOOOOOOOOOOO                        OOOOOOOOOOOOOOOOOOOO",
"OOOOOOOOOOOOOOOOOOOO                        OOOOOOOOOOOOOOOOOOOO",
"OOOOOOOOOOOOOOOOOOOOOOOOOOOOOOOOOOOOOOOOOOOOOOOOOOOOOOOOOOOOOOOO",
"OOOOOOOOOOOOOOOOOOOOOOOOOOOOOOOOOOOOOOOOOOOOOOOOOOOOOOOOOOOOOOOO",
"OOOOOOOOOOOOOOOOOOOOOOOOOOOOOOOOOOOOOOOOOOOOOOOOOOOOOOOOOOOOOOOO",
"OOOOOOOOOOOOOOOOOOOOOOOOOOOOOOOOOOOOOOOOOOOOOOOOOOOOOOOOOOOOOOOO",
"OOOOOOOOOOOOOOOOOOOOOOOOOOOOOOOOOOOOOOOOOOOOOOOOOOOOOOOOOOOOOOOO",
"OOOOOOOOOOOOOOOOOOOOOOOOOOOOOOOOOOOOOOOOOOOOOOOOOOOOOOOOOOOOOOOO",
"OOOOOOOOOOOOOOOOOOOOOOOOOOOOOOOOOOOOOOOOOOOOOOOOOOOOOOOOOOOOOOOO",
"OOOOOOOOOOOOOOOOOOOOOOOOOOOOOOOOOOOOOOOOOOOOOOOOOOOOOOOOOOOOOOOO",
"OOOOOOOOOOOOOOOOOOOOOOOOOOOOOOOOOOOOOOOOOOOOOOOOOOOOOOOOOOOOOOOO",
"OOOOOOOOOOOOOOOOOOOOOOOOOOOOOOOOOOOOOOOOOOOOOOOOOOOOOOOOOOOOOOOO",
"OOOOOOOOOOOOOOOOOOOOOOOOOOOOOOOOOOOOOOOOOOOOOOOOOOOOOOOOOOOOOOOO",
"OOOOOOOOOOOOOOOOOOOOOOOOOOOOOOOOOOOOOOOOOOOOOOOOOOOOOOOOOOOOOOOO",
"OOOOOOOOOOOOOOOOOOOOOOOOOOOOOOOOOOOOOOOOOOOOOOOOOOOOOOOOOOOOOOOO",
"OOOOOOOOOOOOOOOOOOOOOOOOOOOOOOOOOOOOOOOOOOOOOOOOOOOOOOOOOOOOOOOO",
"OOOOOOOOOOOOOOOOOOOOOOOOOOOOOOOOOOOOOOOOOOOOOOOOOOOOOOOOOOOOOOOO",
"OOOOOOOOOOOOOOOOOOOOOOOOOOOOOOOOOOOOOOOOOOOOOOOOOOOOOOOOOOOOOOOO"
};
