/* XPM */
static char *fa899c6cbeb947a9fbdfbd26cb1f5bffjpKxyOOk6p56dgGf[] = {
/* columns rows colors chars-per-pixel */
"64 64 10 1 ",
"  c black",
". c #002F15",
"X c #005928",
"o c #087129",
"O c #586738",
"+ c #40AD29",
"@ c #6BD926",
"# c #A9E74E",
"$ c #C0E869",
"% c #E0E8B1",
/* pixels */
"OOOOOOOOOOOOOOOOOOOOOOOOOOOOOOOOOOOOOOOOOOOOOOOOOOOOOOOOOOOOOOOO",
"OOOOOOOOOOOOOOOOOOOOOOOOOOOOOOOOOOOOOOOOOOOOOOOOOOOOOOOOOOOOOOOO",
"OOOOOOOOOOOOOOOOOOOOOOOOOOOOOOOOOOOOOOOOOOOOOOOOOOOOOOOOOOOOOOOO",
"OOOOOOOOOOOOOOOOOOOOOOOOOOOOOOOOOOOOOOOOOOOOOOOOOOOOOOOOOOOOOOOO",
"OOOOOOOOOOOOOOOOOOOOOOOOOOOOOOOOOOOOOOOOOOOOOOOOOOOOOOOOOOOOOOOO",
"OOOOOOOOOOOOOOOOOOOOOOOOOOOOOOOOOOOOOOOOOOOOOOOOOOOOOOOOOOOOOOOO",
"OOOOOOOOOOOOOOOOOOOOOOOOOOOOOOOOOOOOOOOOOOOOOOOOOOOOOOOOOOOOOOOO",
"OOOOOOOOOOOOOOOOOOOOOOOOOOOOOOOOOOOOOOOOOOOOOOOOOOOOOOOOOOOOOOOO",
"OOOOOOOOOOOOOOOOOOOOOOOOOOOOOOOOOOOOOOOOOOOOOOOOOOOOOOOOOOOOOOOO",
"OOOOOOOOOOOOOOOOOOOOOOOOOOOOOOOOOOOOOOOOOOOOOOOOOOOOOOOOOOOOOOOO",
"OOOOOOOOOOOOOOOOOOOOOOOOOOOOOOOOOOOOOOOOOOOOOOOOOOOOOOOOOOOOOOOO",
"OOOOOOOOOOOOOOOOOOOOOOOOOOOOOOOOOOOOOOOOOOOOOOOOOOOOOOOOOOOOOOOO",
"OOOOOOOOOOOOOOOOOOOOOOOOOOOOOOOOOOOOOOOOOOOOOOOOOOOOOOOOOOOOOOOO",
"OOOOOOOOOOOOOOOOOOOOOOOOOOOOOOOOOOOOOOOOOOOOOOOOOOOOOOOOOOOOOOOO",
"OOOOOOOOOOOOOOOOOOOOOOOOOOOOOOOOOOOOOOOOOOOOOOOOOOOOOOOOOOOOOOOO",
"OOOOOOOOOOOOOOOOOOOOOOOOOOOOOOOOOOOOOOOOOOOOOOOOOOOOOOOOOOOOOOOO",
"OOOOOOOOOOOOOOOOOOOOOOOOOOOOOOOOOOOOOOOOOOOOOOOOOOOOOOOOOOOOOOOO",
"OOOOOOOOOOOOOOOOOOOOOOOOOOOOOOOOOOOOOOOOOOOOOOOOOOOOOOOOOOOOOOOO",
"OOOOOOOOOOOOOOOOOOOOOOOOOOOOOOOOOOOOOOOOOOOOOOOOOOOOOOOOOOOOOOOO",
"OOOOOOOOOOOOOOOOOOOOOOOOOOOOOOOOOOOOOOOOOOOOOOOOOOOOOOOOOOOOOOOO",
"OOOOOOOOOOOOOOOOOOOOOOOOOOOOOOOOOOOOOOOOOOOOOOOOOOOOOOOOOOOOOOOO",
"OOOOOOOOOOOOOOOOOOOOOOOOOOOOOOOOOOOOOOOOOOOOOOOOOOOOOOOOOOOOOOOO",
"OOOOOOOOOOOOOOOOOOOOOOOOOOOOOOOOOOOOOOOOOOOOOOOOOOOOOOOOOOOOOOOO",
"OOOOOOOOOOOOOOOOOOOOOOOOOOOOOOOOOOOOOOOOOOOOOOOOOOOOOOOOOOOOOOOO",
"OOOOOOOOOOOOOOOOOOOOOOOOOOOOOOOOOOOOOOOOOOOOOOOOOOOOOOOOOOOOOOOO",
"OOOOOOOOOOOOOOOOOOOOOOOOOOOOOOOOOOOOOOOOOOOOOOOOOOOOOOOOOOOOOOOO",
"OOOOOOOOOOOOOOOOOOOOOOOOOOOOOOOOOOOOOOOOOOOOOOOOOOOOOOOOOOOOOOOO",
"OOOOOOOOOOOOOOOOOOOOOOOOOOOOOOOOOOOOOOOOOOOOOOOOOOOOOOOOOOOOOOOO",
"OOOOOOOOOOOOOOOOOOOOOOOOOOOOOOOOOOOOOOOOOOOOOOOOOOOOOOOOOOOOOOOO",
"OOOOOOOOOOOOOOOOOOOOOOOOOOOOOOOOOOOOOOOOOOOOOOOOOOOOOOOOOOOOOOOO",
"OOOOOOOOOOOOOOOOOOOOOOOOOOOOOOOOOOOOOOOOOOOOOOOOOOOOOOOOOOOOOOOO",
"OOOOOOOOOOOOOOOOOOOOOOOOOOOOOOOOOOOOOOOOOOOOOOOOOOOOOOOOOOOOOOOO",
"OOOOOOOOOOOOOOOO                                OOOOOOOOOOOOOOOO",
"OOOOOOOOOOOOOOOO                                OOOOOOOOOOOOOOOO",
"OOOOOOOOOOOOOOOO                                OOOOOOOOOOOOOOOO",
"OOOOOOOOOOOOOOOO                                OOOOOOOOOOOOOOOO",
"OOOOOOOOOOOO    oooo%%%%%%%%$$$$$$$$$$$$++++oooo    OOOOOOOOOOOO",
"OOOOOOOOOOOO    oooo%%%%%%%%$$$$$$$$$$$$++++oooo    OOOOOOOOOOOO",
"OOOOOOOOOOOO    oooo%%%%%%%%$$$$$$$$$$$$++++oooo    OOOOOOOOOOOO",
"OOOOOOOOOOOO    oooo%%%%%%%%$$$$$$$$$$$$++++oooo    OOOOOOOOOOOO",
"OOOOOOOO    XXXX$$$$%%%%%%%%$$$$$$$$$$$$$$$$++++XXXX    OOOOOOOO",
"OOOOOOOO    XXXX$$$$%%%%%%%%$$$$$$$$$$$$$$$$++++XXXX    OOOOOOOO",
"OOOOOOOO    XXXX$$$$%%%%%%%%$$$$$$$$$$$$$$$$++++XXXX    OOOOOOOO",
"OOOOOOOO    XXXX$$$$%%%%%%%%$$$$$$$$$$$$$$$$++++XXXX    OOOOOOOO",
"OOOO    ....++++$$$$$$$$oooooooooooooooooooo++++++++....    OOOO",
"OOOO    ....++++$$$$$$$$oooooooooooooooooooo++++++++....    OOOO",
"OOOO    ....++++$$$$$$$$oooooooooooooooooooo++++++++....    OOOO",
"OOOO    ....++++$$$$$$$$oooooooooooooooooooo++++++++....    OOOO",
"OOOO    XXXX++++XXXX........................XXXX++++XXXX    OOOO",
"OOOO    XXXX++++XXXX........................XXXX++++XXXX    OOOO",
"OOOO    XXXX++++XXXX........................XXXX++++XXXX    OOOO",
"OOOO    XXXX++++XXXX........................XXXX++++XXXX    OOOO",
"OOOO    ....@@@@++++XXXX................XXXX++++@@@@....    OOOO",
"OOOO    ....@@@@++++XXXX................XXXX++++@@@@....    OOOO",
"OOOO    ....@@@@++++XXXX................XXXX++++@@@@....    OOOO",
"OOOO    ....@@@@++++XXXX................XXXX++++@@@@....    OOOO",
"OOOOOOOO    XXXX@@@@########################@@@@XXXX    OOOOOOOO",
"OOOOOOOO    XXXX@@@@########################@@@@XXXX    OOOOOOOO",
"OOOOOOOO    XXXX@@@@########################@@@@XXXX    OOOOOOOO",
"OOOOOOOO    XXXX@@@@########################@@@@XXXX    OOOOOOOO",
"OOOOOOOOOOOO                                        OOOOOOOOOOOO",
"OOOOOOOOOOOO                                        OOOOOOOOOOOO",
"OOOOOOOOOOOO                                        OOOOOOOOOOOO",
"OOOOOOOOOOOO                                        OOOOOOOOOOOO"
};
